<svg width="720" height="280" viewBox="0 0 720 280" xmlns="http://www.w3.org/2000/svg">
  <defs>
    <clipPath id="termBody">
      <rect x="0" y="36" width="720" height="244" rx="0"/>
    </clipPath>
  </defs>

  <rect x="0" y="0" width="720" height="280" rx="10" fill="#0d1117" stroke="#30363d" stroke-width="1"/>

  <rect x="0" y="0" width="720" height="36" rx="10" fill="#161b22"/>
  <rect x="0" y="26" width="720" height="10" fill="#161b22"/>
  <line x1="0" y1="36" x2="720" y2="36" stroke="#30363d" stroke-width="1"/>

  <circle cx="24" cy="18" r="6" fill="#ff5f56"/>
  <circle cx="46" cy="18" r="6" fill="#ffbd2e"/>
  <circle cx="68" cy="18" r="6" fill="#27c93f"/>

  <text x="360" y="23" font-family="SFMono-Regular,Consolas,Menlo,monospace" font-size="13" fill="#8b949e" text-anchor="middle">codomain - zsh</text>

  <g clip-path="url(#termBody)">
    <g font-family="SFMono-Regular,Consolas,Menlo,monospace" font-size="16" fill="#c9d1d9">

      <text x="24" y="68" fill="#3fb950">codomain@root</text>
      <text x="158" y="68" fill="#8b949e">:~$</text>
      <text x="192" y="68" fill="#e6edf3">./launch --status</text>

      <text x="24" y="104" fill="#58a6ff">[ system ]</text>
      <text x="148" y="104" fill="#8b949e">booting codomain core...</text>

      <text x="24" y="132" fill="#58a6ff">[ status ]</text>
      <text x="148" y="132" fill="#8b949e">reasoning engine</text>
      <text x="330" y="132" fill="#3fb950">ONLINE</text>

      <text x="24" y="160" fill="#58a6ff">[ status ]</text>
      <text x="148" y="160" fill="#8b949e">action layer</text>
      <text x="330" y="160" fill="#3fb950">ONLINE</text>

      <text x="24" y="188" fill="#58a6ff">[ status ]</text>
      <text x="148" y="188" fill="#8b949e">public release</text>
      <text x="330" y="188" fill="#d29922">PENDING</text>

      <text x="24" y="232" font-size="24" font-weight="bold" fill="#79c0ff">&gt; coming soon</text>
      <rect x="246" y="214" width="13" height="22" fill="#79c0ff">
        <animate attributeName="opacity" values="1;1;0;0" keyTimes="0;0.5;0.51;1" dur="1.1s" repeatCount="indefinite"/>
      </rect>

    </g>
  </g>
</svg>
